# xmcd
#
# Track frame offsets:
#	150
#	18745
#	36035
#	52030
#	69905
#	85505
#	115554
#	128872
#	145465
#	162300
#	177415
#	199942
#	219910
#	226600
#
# Disc length: 3190 seconds
#
# Revision: 0
# Processed by: cddbd v1.4PL0 Copyright (c) Steve Scherf et al.
# Submitted via: audiograbber 1.82.02
#
DISCID=ba0c740e
DTITLE=Peter Lewis Whitebird - Mama and Jesus
DYEAR=2001
DGENRE=Christian Country
TTITLE0=Mama and Jesus
TTITLE1=It Aint Natural
TTITLE2=All I Ever Really Wanted
TTITLE3=Love Isn't By Chance
TTITLE4=Job's Joy
TTITLE5=Written In Red
TTITLE6=Workin' For A Livin'
TTITLE7=Time Changes Everything But You
TTITLE8=That Man Above
TTITLE9=Hot Rod Wings
TTITLE10=I Still Taste The Tears
TTITLE11=I Wouldn't Trade Heaven For The World
TTITLE12=A Personal Invitation
TTITLE13=In The Garden
EXTD=
EXTT0=
EXTT1=
EXTT2=
EXTT3=
EXTT4=
EXTT5=
EXTT6=
EXTT7=
EXTT8=
EXTT9=
EXTT10=
EXTT11=
EXTT12=
EXTT13=
PLAYORDER=
